<?xml version="1.0" standalone="no"?>
<!DOCTYPE svg PUBLIC "-//W3C//DTD SVG 20010904//EN"
 "http://www.w3.org/TR/2001/REC-SVG-20010904/DTD/svg10.dtd">
<svg version="1.0" xmlns="http://www.w3.org/2000/svg"
 width="310.000000pt" height="310.000000pt" viewBox="0 0 310.000000 310.000000"
 preserveAspectRatio="xMidYMid meet">
<metadata>
Created by potrace 1.13, written by Peter Selinger 2001-2015
</metadata>
<g transform="translate(0.000000,310.000000) scale(0.100000,-0.100000)"
fill="#000000" stroke="none">
<path d="M1325 3086 c-347 -58 -632 -202 -870 -441 -219 -218 -356 -472 -427
-792 -19 -83 -22 -129 -22 -303 0 -229 12 -307 78 -505 148 -442 519 -813 961
-961 198 -66 276 -78 505 -78 229 0 307 12 505 78 442 148 813 519 961 961 66
198 78 276 78 505 0 229 -12 307 -78 505 -148 442 -519 813 -961 961 -179 60
-270 75 -470 79 -121 3 -206 0 -260 -9z m402 -361 c366 -55 693 -286 871 -615
85 -158 142 -383 142 -560 0 -236 -92 -516 -229 -698 l-40 -54 -15 54 c-9 29
-25 76 -35 103 -10 28 -33 91 -51 140 -47 134 -78 212 -111 285 l-30 65 -87
24 c-238 65 -404 130 -454 178 -35 34 -37 78 -4 147 13 28 27 68 30 90 5 23
18 47 33 61 26 22 60 101 70 161 6 40 -11 74 -34 68 -17 -5 -18 3 -13 98 8
136 5 146 -49 236 -55 91 -113 132 -220 156 -166 37 -349 -42 -423 -184 -25
-49 -27 -84 -14 -222 9 -85 8 -88 -12 -88 -46 0 -53 -62 -19 -155 16 -43 31
-65 54 -80 25 -16 32 -29 38 -65 4 -25 16 -64 26 -88 l20 -43 -56 -79 c-60
-85 -93 -115 -198 -179 -62 -38 -215 -108 -309 -142 -21 -7 -40 -20 -43 -28
-2 -9 -9 -97 -15 -195 -5 -99 -11 -181 -13 -182 -8 -8 -79 142 -111 233 -62
181 -79 366 -51 560 96 646 703 1094 1352 998z m-383 -1216 c110 -98 128 -119
138 -156 6 -24 13 -43 17 -43 12 0 31 23 31 38 0 17 48 130 65 152 6 8 21 48
34 88 12 39 25 72 28 72 11 0 -7 -289 -21 -327 -7 -21 -16 -92 -20 -158 -7
-125 -35 -473 -40 -490 -5 -17 -34 53 -81 193 -70 207 -163 435 -224 547 -98
181 -111 210 -111 244 l0 34 29 -40 c16 -22 86 -91 155 -154z"/>
</g>
</svg>
